<?xml version="1.0" standalone="no"?>
<!DOCTYPE svg PUBLIC "-//W3C//DTD SVG 20010904//EN"
 "http://www.w3.org/TR/2001/REC-SVG-20010904/DTD/svg10.dtd">
<svg version="1.0" xmlns="http://www.w3.org/2000/svg"
 width="50.000000pt" height="50.000000pt" viewBox="0 0 50.000000 50.000000"
 preserveAspectRatio="xMidYMid meet">

<g transform="translate(0.000000,50.000000) scale(0.100000,-0.100000)"
fill="#000000" stroke="none">
<path d="M80 460 c-19 -19 -20 -33 -20 -214 0 -190 1 -195 22 -210 18 -13 55
-16 190 -16 103 0 168 4 168 10 0 6 -68 11 -171 12 -148 3 -173 5 -182 20 -8
12 -7 21 2 32 11 13 40 16 182 16 l169 0 0 185 0 185 -170 0 c-157 0 -172 -2
-190 -20z m340 -165 l0 -165 -154 0 c-85 0 -161 -3 -170 -6 -14 -5 -16 12 -16
153 0 110 4 163 12 171 8 8 60 12 170 12 l158 0 0 -165z"/>
<path d="M134 396 c-3 -8 -4 -25 -2 -38 3 -23 5 -23 123 -23 l120 0 0 35 0 35
-118 3 c-95 2 -118 0 -123 -12z m226 -26 c0 -19 -7 -20 -105 -20 -98 0 -105 1
-105 20 0 19 7 20 105 20 98 0 105 -1 105 -20z"/>
</g>
</svg>
